<?xml version="1.0" standalone="no"?>
<!DOCTYPE svg PUBLIC "-//W3C//DTD SVG 20010904//EN"
 "http://www.w3.org/TR/2001/REC-SVG-20010904/DTD/svg10.dtd">
<svg version="1.0" xmlns="http://www.w3.org/2000/svg"
 width="399.000000pt" height="399.000000pt" viewBox="0 0 399.000000 399.000000"
 preserveAspectRatio="xMidYMid meet">
<metadata>
Created by potrace 1.11, written by Peter Selinger 2001-2013
</metadata>
<g transform="translate(0.000000,399.000000) scale(0.100000,-0.100000)"
fill="#000000" stroke="none">
<path d="M500 1995 l0 -1485 1495 0 1495 0 0 1485 0 1485 -1495 0 -1495 0 0
-1485z m1607 565 c-45 -52 -127 -297 -103 -306 6 -2 77 -3 156 -2 l145 3 12
60 c20 98 27 210 15 244 l-11 31 186 0 c176 0 185 -1 171 -17 -27 -31 -65
-115 -92 -204 -14 -47 -26 -89 -26 -93 0 -5 61 -7 135 -4 157 6 145 21 107
-132 l-27 -105 -135 3 -135 4 -22 -110 c-13 -60 -26 -118 -30 -128 -6 -16 3
-17 135 -11 114 4 142 3 142 -8 0 -19 -39 -186 -49 -211 -8 -19 -13 -20 -97
-12 -49 5 -109 8 -133 6 -45 -3 -45 -3 -58 -53 -7 -27 -18 -101 -25 -162 l-12
-113 -143 0 c-79 0 -143 2 -143 3 0 2 6 17 14 33 19 38 65 198 73 252 l6 42
-160 0 -160 0 -17 -77 c-10 -43 -20 -117 -23 -165 l-6 -88 -143 0 c-79 0 -144
2 -144 5 0 4 7 19 15 36 18 33 75 243 75 273 0 18 -7 18 -121 14 l-121 -5 6
46 c3 25 11 74 17 109 l11 62 129 0 c125 0 129 1 134 23 24 104 45 209 45 222
0 13 -20 15 -120 15 l-120 0 0 28 c0 15 7 62 15 105 8 43 15 80 15 81 0 2 57
3 127 2 l127 -1 8 35 c17 79 29 231 19 265 l-9 35 185 0 185 0 -25 -30z"/>
<path d="M1946 2042 c-4 -6 -56 -245 -56 -257 0 -3 72 -5 160 -5 l160 0 6 26
c21 81 50 235 46 239 -9 8 -310 6 -316 -3z"/>
</g>
</svg>
