<?xml version="1.0" standalone="no"?>
<!DOCTYPE svg PUBLIC "-//W3C//DTD SVG 20010904//EN"
 "http://www.w3.org/TR/2001/REC-SVG-20010904/DTD/svg10.dtd">
<svg version="1.0" xmlns="http://www.w3.org/2000/svg"
 width="1926.000000pt" height="1926.000000pt" viewBox="0 0 1926.000000 1926.000000"
 preserveAspectRatio="xMidYMid meet">
<metadata>
Created by potrace 1.11, written by Peter Selinger 2001-2013
</metadata>
<g transform="translate(0.000000,1926.000000) scale(0.100000,-0.100000)"
fill="#000000" stroke="none">
<path d="M30 9630 l0 -9630 9600 0 9600 0 0 9630 0 9630 -9600 0 -9600 0 0
-9630z m10065 6356 c269 -73 496 -302 565 -569 70 -276 5 -540 -184 -743 -359
-388 -961 -340 -1253 99 -119 179 -161 428 -108 638 39 153 152 329 273 424
88 69 221 134 321 156 104 23 292 20 386 -5z m-3980 -1606 c471 -147 705 -663
499 -1099 -177 -376 -591 -556 -982 -425 -118 39 -206 96 -307 198 -73 73
-100 109 -138 183 -69 135 -90 220 -91 378 0 107 4 144 22 209 87 304 340 530
647 580 17 2 86 3 155 1 93 -2 143 -9 195 -25z m8000 0 c265 -83 462 -282 541
-545 37 -126 40 -312 6 -429 -130 -452 -599 -699 -1039 -547 -114 39 -182 82
-280 175 -98 93 -164 193 -204 309 -94 274 -48 553 128 772 122 151 306 258
498 289 17 2 86 3 155 1 93 -2 143 -9 195 -25z m-3924 -1580 c621 -60 1204
-295 1691 -681 129 -103 400 -373 500 -499 323 -408 539 -868 638 -1360 49
-242 63 -387 63 -680 1 -228 -2 -285 -21 -410 -88 -564 -283 -1036 -603 -1463
-499 -666 -1191 -1095 -2004 -1246 -204 -37 -313 -46 -580 -46 -263 1 -348 8
-560 47 -668 122 -1256 438 -1730 929 -478 495 -774 1111 -870 1809 -22 160
-31 573 -16 725 76 746 403 1433 933 1957 521 516 1183 833 1908 913 142 16
512 18 651 5z m-5686 -2415 c140 -39 278 -125 381 -238 198 -219 259 -543 153
-819 -43 -110 -113 -211 -209 -301 -66 -62 -103 -88 -184 -127 -140 -67 -214
-84 -361 -84 -230 1 -413 80 -572 247 -159 167 -234 373 -220 605 17 308 224
586 515 692 46 17 107 35 135 40 75 13 291 4 362 -15z m11234 -14 c213 -71
379 -218 471 -416 59 -125 74 -199 74 -355 0 -127 -2 -141 -32 -230 -41 -119
-96 -212 -175 -296 -180 -193 -443 -290 -691 -255 -344 49 -613 302 -682 642
-24 119 -15 286 21 394 94 282 334 493 621 545 27 5 105 8 174 6 109 -3 137
-8 219 -35z m-9624 -3991 c308 -96 519 -344 566 -662 74 -507 -374 -962 -886
-899 -321 39 -592 274 -677 588 -31 115 -31 309 0 417 87 304 340 530 647 580
17 2 86 3 155 1 93 -2 143 -9 195 -25z m8000 0 c265 -83 462 -281 541 -545 37
-125 40 -311 6 -429 -110 -384 -481 -635 -866 -588 -426 53 -729 421 -703 854
7 108 46 245 97 333 120 209 339 361 575 399 17 2 86 3 155 1 93 -2 143 -9
195 -25z m-4053 -1585 c93 -19 253 -98 335 -164 254 -208 356 -576 246 -886
-74 -207 -259 -399 -457 -476 -460 -178 -941 69 -1072 551 -27 100 -25 301 4
403 83 289 312 509 594 571 86 19 260 19 350 1z"/>
<path d="M9690 11200 c-185 -26 -376 -86 -540 -171 -358 -185 -649 -524 -775
-903 -63 -188 -79 -289 -79 -496 0 -205 15 -312 66 -485 30 -103 115 -291 171
-380 91 -145 279 -349 407 -441 284 -206 597 -308 945 -308 327 0 624 90 900
272 128 84 335 289 422 417 285 422 357 934 197 1414 -180 543 -629 939 -1201
1061 -112 24 -403 35 -513 20z"/>
</g>
</svg>
